PathFileType	4	(X/Y/Z) abd_0kg_3.trc																										
DataRate	CameraRate	NumFrames	NumMarkers	Units	OrigDataRate	OrigDataStartFrame	OrigNumFrames																					
100	100	49	9	mm	100	99	787																					
Frame#	Time	gu			centelbow			EpL			centpxt8			centijc7			ij			ts			aa			ai		
		X1	Y1	Z1	X2	Y2	Z2	X3	Y3	Z3	X4	Y4	Z4	X5	Y5	Z5	X6	Y6	Z6	X7	Y7	Z7	X8	Y8	Z8	X9	Y9	Z9  
98	0.98	-102.231	24.167	146.748	-153.182	-118.179	342.007	-171.327	-92.956	350.609	-46.816	-153.158	-8.669	-46.816	31.938	-8.669	0	0	0	-121.242	13.414	23.199	-136.273	49.334	135.932	-125.662	-93.144	62.078
99	0.99	-102.509	25.153	146.314	-153.92	-113.728	343.933	-172.112	-88.372	352.029	-46.816	-153.158	-8.669	-46.816	31.938	-8.669	0	0	0	-121.392	12.67	23.217	-136.554	49.612	135.601	-125.631	-93.529	63.085
100	1	-102.44	26.143	145.639	-154.23	-109.252	345.565	-172.455	-83.767	353.17	-46.816	-153.158	-8.669	-46.816	31.938	-8.669	0	0	0	-121.3	12.076	23.266	-136.598	50.052	135.287	-125.288	-93.747	64.145
101	1.01	-102.059	27.242	144.977	-154.181	-104.7	347.113	-172.44	-79.101	354.235	-46.816	-153.158	-8.669	-46.816	31.938	-8.669	0	0	0	-121.024	11.751	23.187	-136.428	50.754	134.839	-124.689	-93.687	65.081
102	1.02	-101.695	28.275	144.542	-154.197	-100.27	348.758	-172.488	-74.566	355.406	-46.816	-153.158	-8.669	-46.816	31.938	-8.669	0	0	0	-120.742	11.585	23.024	-136.212	51.582	134.315	-124.074	-93.468	65.902
103	1.03	-101.456	29.074	144.37	-154.432	-96.115	350.539	-172.738	-70.307	356.723	-46.816	-153.158	-8.669	-46.816	31.938	-8.669	0	0	0	-120.452	11.347	22.943	-135.975	52.286	133.884	-123.511	-93.331	66.746
104	1.04	-101.323	29.773	144.278	-154.797	-92.076	352.311	-173.101	-66.162	358.044	-46.816	-153.158	-8.669	-46.816	31.938	-8.669	0	0	0	-120.181	10.884	23.011	-135.766	52.744	133.598	-123.045	-93.421	67.71
105	1.05	-101.346	30.554	144.094	-155.271	-87.96	353.929	-173.563	-61.944	359.222	-46.816	-153.158	-8.669	-46.816	31.938	-8.669	0	0	0	-120.137	10.21	23.179	-135.786	53.029	133.389	-122.854	-93.697	68.803
106	1.06	-101.462	31.413	143.796	-155.79	-83.774	355.373	-174.063	-57.662	360.236	-46.816	-153.158	-8.669	-46.816	31.938	-8.669	0	0	0	-120.331	9.556	23.283	-136.032	53.373	133.094	-122.904	-93.927	69.869
107	1.07	-101.552	32.157	143.438	-156.248	-79.702	356.699	-174.49	-53.493	361.144	-46.816	-153.158	-8.669	-46.816	31.938	-8.669	0	0	0	-120.522	9.129	23.191	-136.262	53.936	132.596	-122.921	-93.923	70.733
108	1.08	-101.557	32.583	143.142	-156.638	-75.929	358.026	-174.835	-49.623	362.057	-46.816	-153.158	-8.669	-46.816	31.938	-8.669	0	0	0	-120.6	8.833	23.026	-136.38	54.58	132.036	-122.806	-93.797	71.479
109	1.09	-101.42	32.775	142.992	-156.946	-72.391	359.42	-175.098	-45.993	363.035	-46.816	-153.158	-8.669	-46.816	31.938	-8.669	0	0	0	-120.59	8.459	22.984	-136.422	55.088	131.612	-122.62	-93.768	72.292
110	1.1	-101.234	33.069	142.873	-157.215	-68.805	360.754	-175.332	-42.329	363.953	-46.816	-153.158	-8.669	-46.816	31.938	-8.669	0	0	0	-120.505	7.978	23.047	-136.393	55.442	131.304	-122.39	-93.858	73.161
111	1.11	-101.195	33.731	142.693	-157.566	-64.971	361.929	-175.666	-38.438	364.723	-46.816	-153.158	-8.669	-46.816	31.938	-8.669	0	0	0	-120.395	7.459	23.143	-136.326	55.724	131.039	-122.187	-93.998	74.025
112	1.12	-101.244	34.729	142.532	-157.925	-60.926	363.035	-176.022	-34.353	365.439	-46.816	-153.158	-8.669	-46.816	31.938	-8.669	0	0	0	-120.325	6.959	23.275	-136.274	55.992	130.821	-122.095	-94.131	74.882
113	1.13	-101.141	35.753	142.415	-158.079	-56.889	364.136	-176.179	-30.285	366.156	-46.816	-153.158	-8.669	-46.816	31.938	-8.669	0	0	0	-120.317	6.518	23.373	-136.263	56.296	130.577	-122.097	-94.212	75.679
114	1.14	-100.906	36.436	142.284	-158.096	-53.158	365.189	-176.195	-26.528	366.826	-46.816	-153.158	-8.669	-46.816	31.938	-8.669	0	0	0	-120.369	6.049	23.44	-136.313	56.569	130.297	-122.14	-94.316	76.444
115	1.15	-100.832	36.601	142.162	-158.283	-49.973	366.19	-176.372	-23.316	367.451	-46.816	-153.158	-8.669	-46.816	31.938	-8.669	0	0	0	-120.477	5.446	23.626	-136.429	56.709	130.127	-122.193	-94.545	77.335
116	1.16	-101.022	36.33	142.02	-158.673	-47.325	367.103	-176.746	-20.643	368.01	-46.816	-153.158	-8.669	-46.816	31.938	-8.669	0	0	0	-120.632	4.824	23.908	-136.588	56.815	130.054	-122.228	-94.79	78.316
117	1.17	-101.224	35.892	141.729	-158.93	-44.942	367.826	-176.993	-18.244	368.4	-46.816	-153.158	-8.669	-46.816	31.938	-8.669	0	0	0	-120.795	4.303	24.097	-136.736	56.984	129.905	-122.201	-94.944	79.174
118	1.18	-101.199	35.569	141.291	-158.835	-42.536	368.364	-176.916	-15.845	368.613	-46.816	-153.158	-8.669	-46.816	31.938	-8.669	0	0	0	-120.908	3.801	24.124	-136.83	57.109	129.62	-122.099	-95.107	79.815
119	1.19	-100.97	35.493	140.858	-158.493	-39.98	368.847	-176.637	-13.33	368.766	-46.816	-153.158	-8.669	-46.816	31.938	-8.669	0	0	0	-120.951	3.346	24.026	-136.872	57.206	129.242	-121.94	-95.257	80.259
120	1.2	-100.692	35.675	140.493	-158.115	-37.267	369.33	-176.359	-10.689	368.915	-46.816	-153.158	-8.669	-46.816	31.938	-8.669	0	0	0	-120.949	3.203	23.838	-136.889	57.544	128.803	-121.754	-95.13	80.545
121	1.21	-100.468	36.071	140.187	-157.824	-34.46	369.795	-176.184	-7.969	369.052	-46.816	-153.158	-8.669	-46.816	31.938	-8.669	0	0	0	-120.92	3.405	23.67	-136.877	58.184	128.405	-121.569	-94.68	80.807
122	1.22	-100.336	36.633	139.962	-157.649	-31.595	370.276	-176.119	-5.191	369.22	-46.816	-153.158	-8.669	-46.816	31.938	-8.669	0	0	0	-120.854	3.573	23.703	-136.807	58.796	128.205	-121.428	-94.263	81.264
123	1.23	-100.362	37.4	139.783	-157.592	-28.569	370.775	-176.158	-2.246	369.423	-46.816	-153.158	-8.669	-46.816	31.938	-8.669	0	0	0	-120.828	3.38	23.969	-136.756	59.079	128.222	-121.425	-94.196	81.971
124	1.24	-100.559	38.408	139.561	-157.61	-25.302	371.23	-176.258	0.947	369.6	-46.816	-153.158	-8.669	-46.816	31.938	-8.669	0	0	0	-120.943	2.911	24.297	-136.837	59.101	128.291	-121.591	-94.394	82.75
125	1.25	-100.75	39.585	139.238	-157.539	-21.878	371.577	-176.253	4.306	369.685	-46.816	-153.158	-8.669	-46.816	31.938	-8.669	0	0	0	-121.066	2.484	24.487	-136.922	59.153	128.227	-121.701	-94.551	83.388
126	1.26	-100.71	40.711	138.808	-157.226	-18.53	371.791	-175.977	7.609	369.656	-46.816	-153.158	-8.669	-46.816	31.938	-8.669	0	0	0	-120.991	2.31	24.423	-136.792	59.425	127.926	-121.535	-94.467	83.749
127	1.27	-100.446	41.457	138.366	-156.748	-15.588	371.947	-175.498	10.532	369.585	-46.816	-153.158	-8.669	-46.816	31.938	-8.669	0	0	0	-120.812	2.359	24.149	-136.539	59.877	127.441	-121.242	-94.181	83.859
128	1.28	-100.134	41.714	138.056	-156.295	-13.19	372.184	-175.016	12.931	369.606	-46.816	-153.158	-8.669	-46.816	31.938	-8.669	0	0	0	-120.753	2.424	23.912	-136.418	60.305	127.011	-121.122	-93.904	83.965
129	1.29	-99.888	41.792	137.854	-155.93	-11.06	372.482	-174.621	15.06	369.698	-46.816	-153.158	-8.669	-46.816	31.938	-8.669	0	0	0	-120.826	2.312	23.91	-136.472	60.537	126.817	-121.226	-93.818	84.28
130	1.3	-99.808	42.061	137.514	-155.694	-8.809	372.617	-174.376	17.296	369.63	-46.816	-153.158	-8.669	-46.816	31.938	-8.669	0	0	0	-120.905	2.014	24.055	-136.552	60.569	126.774	-121.398	-93.928	84.722
131	1.31	-99.931	42.535	136.985	-155.642	-6.347	372.551	-174.332	19.728	369.355	-46.816	-153.158	-8.669	-46.816	31.938	-8.669	0	0	0	-120.878	1.712	24.145	-136.509	60.567	126.696	-121.45	-94.058	85.084
132	1.32	-100.06	42.933	136.663	-155.684	-3.96	372.653	-174.378	22.084	369.244	-46.816	-153.158	-8.669	-46.816	31.938	-8.669	0	0	0	-120.722	1.589	24.105	-136.322	60.712	126.506	-121.313	-94.024	85.29
133	1.33	-100.005	43.108	136.861	-155.699	-1.889	373.203	-174.376	24.14	369.585	-46.816	-153.158	-8.669	-46.816	31.938	-8.669	0	0	0	-120.565	1.595	24.051	-136.148	60.977	126.304	-121.14	-93.862	85.478
134	1.34	-99.86	43.264	137.271	-155.702	0.031	373.907	-174.339	26.061	370.098	-46.816	-153.158	-8.669	-46.816	31.938	-8.669	0	0	0	-120.583	1.537	24.182	-136.17	61.197	126.273	-121.152	-93.752	85.87
135	1.35	-99.762	43.616	137.311	-155.665	2.084	374.237	-174.258	28.12	370.252	-46.816	-153.158	-8.669	-46.816	31.938	-8.669	0	0	0	-120.766	1.389	24.497	-136.36	61.345	126.413	-121.35	-93.721	86.459
136	1.36	-99.642	44.007	136.861	-155.49	4.185	374.094	-174.046	30.221	369.94	-46.816	-153.158	-8.669	-46.816	31.938	-8.669	0	0	0	-120.905	1.22	24.758	-136.487	61.471	126.502	-121.512	-93.713	86.992
137	1.37	-99.494	44.063	136.345	-155.313	5.963	373.868	-173.84	31.99	369.537	-46.816	-153.158	-8.669	-46.816	31.938	-8.669	0	0	0	-120.887	0.975	24.824	-136.431	61.513	126.403	-121.519	-93.785	87.32
138	1.38	-99.506	43.724	136.102	-155.403	7.329	373.873	-173.913	33.336	369.355	-46.816	-153.158	-8.669	-46.816	31.938	-8.669	0	0	0	-120.849	0.602	24.813	-136.34	61.431	126.226	-121.498	-93.982	87.576
139	1.39	-99.712	43.354	136.048	-155.7	8.66	374.053	-174.212	34.632	369.341	-46.816	-153.158	-8.669	-46.816	31.938	-8.669	0	0	0	-120.896	0.163	24.901	-136.337	61.306	126.133	-121.536	-94.227	87.955
140	1.4	-99.897	43.294	135.977	-155.883	10.331	374.227	-174.419	36.248	369.318	-46.816	-153.158	-8.669	-46.816	31.938	-8.669	0	0	0	-120.972	-0.234	25.083	-136.372	61.255	126.111	-121.565	-94.406	88.461
141	1.41	-99.871	43.6	135.751	-155.767	12.372	374.256	-174.344	38.223	369.153	-46.816	-153.158	-8.669	-46.816	31.938	-8.669	0	0	0	-121.09	-0.478	25.174	-136.445	61.389	125.979	-121.58	-94.407	88.914
142	1.42	-99.716	44.176	135.313	-155.487	14.644	374.064	-174.11	40.424	368.772	-46.816	-153.158	-8.669	-46.816	31.938	-8.669	0	0	0	-121.325	-0.548	25.086	-136.625	61.719	125.652	-121.67	-94.215	89.211
143	1.43	-99.642	44.813	134.867	-155.393	16.933	373.821	-174.049	42.649	368.342	-46.816	-153.158	-8.669	-46.816	31.938	-8.669	0	0	0	-121.567	-0.555	24.964	-136.817	62.11	125.291	-121.788	-93.961	89.468
144	1.44	-99.66	45.262	134.686	-155.65	18.986	373.766	-174.31	44.658	368.093	-46.816	-153.158	-8.669	-46.816	31.938	-8.669	0	0	0	-121.561	-0.634	25.015	-136.799	62.382	125.122	-121.758	-93.812	89.849
145	1.45	-99.588	45.503	134.722	-156.043	20.818	373.862	-174.68	46.461	367.985	-46.816	-153.158	-8.669	-46.816	31.938	-8.669	0	0	0	-121.248	-0.917	25.339	-136.528	62.391	125.257	-121.563	-93.912	90.434
146	1.46	-99.335	45.746	134.762	-156.304	22.736	373.947	-174.906	48.355	367.858	-46.816	-153.158	-8.669	-46.816	31.938	-8.669	0	0	0	-120.864	-1.375	25.817	-136.225	62.195	125.555	-121.398	-94.211	91.138
